<?xml version="1.0" encoding="UTF-8"?>
<svg id="paw-solid" xmlns="http://www.w3.org/2000/svg" version="1.1" viewBox="0 0 1000 1000">
  <!-- Generator: Adobe Illustrator 29.8.1, SVG Export Plug-In . SVG Version: 2.1.1 Build 2)  -->
  <path d="M408.33,470.39c114.53,9.03,73.82-214.89-33.11-182.02-76.07,23.38-46.54,175.74,33.11,182.02Z" fill="currentColor"/>
  <path d="M586.92,440.93c86.44-26.09,57.25-211.54-39.37-182.94-87.01,25.76-55.94,211.71,39.37,182.94Z" fill="currentColor"/>
  <path d="M356.35,607.5c74.46-28.47,19.63-175.53-60.98-155.78-86.33,21.15-24.71,188.54,60.98,155.78Z" fill="currentColor"/>
  <path d="M687.32,382.61c-77.96,18.98-71.42,174.07,8.96,165.97,91.52-9.23,82.3-188.18-8.96-165.97Z" fill="currentColor"/>
  <path d="M676.64,575.39c-9.17-5.45-20.79-8.17-29.72-13.04-55.76-30.41-66.29-115.96-151.47-93.11-68.67,18.42-54.2,91.8-92.76,136.18-35.68,41.06-72.36,80.92-25.1,136.94,64.38,76.31,126.71-14.79,190.64-15.85,18.11-.3,37.99,9.06,55.67,10.49,98.91,8.03,134.55-113.03,52.74-161.61Z" fill="currentColor"/>
</svg>
