<!-- assets/icons/sprite.svg -->
<svg xmlns="http://www.w3.org/2000/svg" style="display:none">
  <!-- Energia (raio) -->
  <symbol id="i-energy" viewBox="0 0 24 24">
    <g fill="none" stroke="currentColor" stroke-width="2" stroke-linecap="round" stroke-linejoin="round">
      <path d="M13 2L5 14h6l-1 8 8-12h-6l1-8z"/>
    </g>
  </symbol>

  <!-- Treinabilidade (medalha/ribbon) -->
  <symbol id="i-trainability" viewBox="0 0 24 24">
    <g fill="none" stroke="currentColor" stroke-width="2" stroke-linecap="round" stroke-linejoin="round">
      <circle cx="12" cy="8" r="4"/>
      <!-- rabichos da medalha; simplifiquei um pouco para legibilidade em 16px -->
      <path d="M9 12l-2 6M15 12l2 6"/>
    </g>
  </symbol>

  <!-- Grooming (pente) -->
  <symbol id="i-grooming" viewBox="0 0 24 24">
    <g fill="none" stroke="currentColor" stroke-width="2" stroke-linecap="round" stroke-linejoin="round">
      <rect x="3" y="7" width="18" height="3" rx="1"/>
      <path d="M6 10v8M9 10v8M12 10v8M15 10v8M18 10v8"/>
    </g>
  </symbol>

  <!-- Vocalização (bark) -->
  <symbol id="i-barking" viewBox="0 0 24 24">
    <g fill="none" stroke="currentColor" stroke-width="2" stroke-linecap="round" stroke-linejoin="round">
      <path d="M4 14V6l6 3 6-3v8l-6 3-6-3z"/>
      <path d="M18 10c1.5.5 2.5 1.5 3 3M18 7c2 .7 3.3 2 4 4"/>
    </g>
  </symbol>

  <!-- Sociabilidade (duas silhuetas) -->
  <symbol id="i-sociability" viewBox="0 0 24 24">
    <g fill="none" stroke="currentColor" stroke-width="2" stroke-linecap="round" stroke-linejoin="round">
      <circle cx="8" cy="8" r="3"/>
      <circle cx="16" cy="8" r="3"/>
      <path d="M3 19c0-3 3-5 5-5s5 2 5 5"/>
      <path d="M11 19c0-3 3-5 5-5s5 2 5 5"/>
    </g>
  </symbol>

  <!-- Apartamento (prédio) -->
  <symbol id="i-apt" viewBox="0 0 24 24">
    <g fill="none" stroke="currentColor" stroke-width="2" stroke-linecap="round" stroke-linejoin="round">
      <rect x="5" y="3" width="10" height="18" rx="1"/>
      <path d="M8 7h2M12 7h2M8 11h2M12 11h2M8 15h2M12 15h2"/>
      <path d="M17 21V10h2a2 2 0 0 1 2 2v9"/>
    </g>
  </symbol>

  <!-- Exercício (halter) -->
  <symbol id="i-exercise" viewBox="0 0 24 24">
    <g fill="none" stroke="currentColor" stroke-width="2" stroke-linecap="round" stroke-linejoin="round">
      <rect x="3" y="10" width="3" height="4"/>
      <rect x="18" y="10" width="3" height="4"/>
      <rect x="7" y="11" width="10" height="2"/>
    </g>
  </symbol>

  <!-- Saúde (cruz) -->
  <symbol id="i-health" viewBox="0 0 24 24">
    <g fill="none" stroke="currentColor" stroke-width="2" stroke-linecap="round" stroke-linejoin="round">
      <path d="M12 4v16M4 12h16"/>
    </g>
  </symbol>

<!-- Paw contornada (header 24–32 px) -->
<symbol id="i-brand-paw" viewBox="0 0 24 24">
  <g transform="scale(0.024)" fill="none" stroke="currentColor"
     stroke-linecap="round" stroke-linejoin="round" stroke-width="72">
    <path d="M409.81,446.33c114.53,9.03,73.82-214.89-33.11-182.02-76.07,23.38-46.54,175.74,33.11,182.02Z" fill="none" stroke="currentColor" stroke-linecap="round" stroke-linejoin="round"/>
    <path d="M588.41,416.87c86.44-26.09,57.25-211.54-39.37-182.94-87.01,25.76-55.94,211.71,39.37,182.94Z" fill="none" stroke="currentColor" stroke-linecap="round" stroke-linejoin="round"/>
    <path d="M357.83,583.44c74.46-28.47,19.63-175.53-60.98-155.78-86.33,21.15-24.71,188.54,60.98,155.78Z" fill="none" stroke="currentColor" stroke-linecap="round" stroke-linejoin="round"/>
    <path d="M688.8,358.55c-77.96,18.98-71.42,174.07,8.96,165.97,91.52-9.23,82.3-188.18-8.96-165.97Z" fill="none" stroke="currentColor" stroke-linecap="round" stroke-linejoin="round"/>
    <path d="M678.12,551.33c-9.17-5.45-20.79-8.17-29.72-13.04-55.76-30.41-66.29-115.96-151.47-93.11-68.67,18.42-54.2,91.8-92.76,136.18-35.68,41.06-72.36,80.92-25.1,136.94,64.38,76.31,126.71-14.79,190.64-15.85,18.11-.3,37.99,9.06,55.67,10.49,98.91,8.03,134.55-113.03,52.74-161.61Z" fill="none" stroke="currentColor" stroke-linecap="round" stroke-linejoin="round"/>
  </g>
</symbol>

<!-- Paw sólida (favicon 16 px) -->
<symbol id="i-brand-paw-solid" viewBox="0 0 24 24">
  <g transform="scale(0.024)" fill="currentColor">
    <path d="M408.33,470.39c114.53,9.03,73.82-214.89-33.11-182.02-76.07,23.38-46.54,175.74,33.11,182.02Z" fill="currentColor"/>
    <path d="M586.92,440.93c86.44-26.09,57.25-211.54-39.37-182.94-87.01,25.76-55.94,211.71,39.37,182.94Z" fill="currentColor"/>
    <path d="M356.35,607.5c74.46-28.47,19.63-175.53-60.98-155.78-86.33,21.15-24.71,188.54,60.98,155.78Z" fill="currentColor"/>
    <path d="M687.32,382.61c-77.96,18.98-71.42,174.07,8.96,165.97,91.52-9.23,82.3-188.18-8.96-165.97Z" fill="currentColor"/>
    <path d="M676.64,575.39c-9.17-5.45-20.79-8.17-29.72-13.04-55.76-30.41-66.29-115.96-151.47-93.11-68.67,18.42-54.2,91.8-92.76,136.18-35.68,41.06-72.36,80.92-25.1,136.94,64.38,76.31,126.71-14.79,190.64-15.85,18.11-.3,37.99,9.06,55.67,10.49,98.91,8.03,134.55-113.03,52.74-161.61Z" fill="currentColor"/>
  </g>
</symbol>
</svg>
